HIERARCHY
ROOT Hips
{
	OFFSET -6.585965 91.663933 257.982513
	CHANNELS 6 Xposition Yposition Zposition Xrotation Yrotation Zrotation 
	JOINT RightUpLeg
	{
		OFFSET 0.103457 1.857831 10.548505
		CHANNELS 3 Xrotation Yrotation Zrotation
		JOINT RightLeg
		{
			OFFSET 43.500000 -0.000038 -0.000004
			CHANNELS 3 Xrotation Yrotation Zrotation
			JOINT RightFoot
			{
				OFFSET 42.372208 0.000027 -0.000004
				CHANNELS 3 Xrotation Yrotation Zrotation
				JOINT RightToe
				{
					OFFSET 17.300005 0.000002 0.000002
					CHANNELS 3 Xrotation Yrotation Zrotation
					End Site
					{
						OFFSET 0.000000 0.000000 0.000000
					}
				}
			}
		}
	}
	JOINT LeftUpLeg
	{
		OFFSET 0.103462 1.857825 -10.548504
		CHANNELS 3 Xrotation Yrotation Zrotation
		JOINT LeftLeg
		{
			OFFSET 43.500042 -0.000027 0.000011
			CHANNELS 3 Xrotation Yrotation Zrotation
			JOINT LeftFoot
			{
				OFFSET 42.372265 -0.000015 0.000012
				CHANNELS 3 Xrotation Yrotation Zrotation
				JOINT LeftToe
				{
					OFFSET 17.299988 -0.000007 0.000010
					CHANNELS 3 Xrotation Yrotation Zrotation
					End Site
					{
						OFFSET 0.000000 0.000000 0.000000
					}
				}
			}
		}
	}
	JOINT Spine
	{
		OFFSET 6.901970 -2.603737 0.000000
		CHANNELS 3 Xrotation Yrotation Zrotation
		JOINT Spine1
		{
			OFFSET 12.588099 0.000007 0.000001
			CHANNELS 3 Xrotation Yrotation Zrotation
			JOINT Spine2
			{
				OFFSET 12.343201 0.000001 0.000000
				CHANNELS 3 Xrotation Yrotation Zrotation
				JOINT Neck
				{
					OFFSET 25.832897 -0.000008 -0.000001
					CHANNELS 3 Xrotation Yrotation Zrotation
					JOINT Head
					{
						OFFSET 11.766607 0.000021 0.000000
						CHANNELS 3 Xrotation Yrotation Zrotation
						End Site
						{
							OFFSET 0.000000 0.000000 0.000000
						}
					}
				}
				JOINT RightShoulder
				{
					OFFSET 19.745903 -1.480373 6.000104
					CHANNELS 3 Xrotation Yrotation Zrotation
					JOINT RightArm
					{
						OFFSET 11.284125 -0.000018 -0.000023
						CHANNELS 3 Xrotation Yrotation Zrotation
						JOINT RightForeArm
						{
							OFFSET 33.000050 0.000010 0.000034
							CHANNELS 3 Xrotation Yrotation Zrotation
							JOINT RightHand
							{
								OFFSET 25.200010 0.000001 -0.000001
								CHANNELS 3 Xrotation Yrotation Zrotation
								End Site
								{
									OFFSET 0.000000 0.000000 0.000000
								}
							}
						}
					}
				}
				JOINT LeftShoulder
				{
					OFFSET 19.746090 -1.480381 -6.000076
					CHANNELS 3 Xrotation Yrotation Zrotation
					JOINT LeftArm
					{
						OFFSET 11.284138 -0.000019 -0.000020
						CHANNELS 3 Xrotation Yrotation Zrotation
						JOINT LeftForeArm
						{
							OFFSET 33.000092 0.000024 0.000022
							CHANNELS 3 Xrotation Yrotation Zrotation
							JOINT LeftHand
							{
								OFFSET 25.199774 0.000133 0.000423
								CHANNELS 3 Xrotation Yrotation Zrotation
								End Site
								{
									OFFSET 0.000000 0.000000 0.000000
								}
							}
						}
					}
				}
			}
		}
	}
}
MOTION
Frames: 12
Frame Time: 0.033333
62.447311 89.784233 -157.150604 92.878955 2.660512 117.876962 179.911008 -4.833402 -178.290040 -24.506876 -4.120424 -11.926967 89.431389 6.832841 -10.065830 21.454560 0.003106 0.000018 173.484537 17.097505 -170.960304 -26.452950 1.970919 0.213223 84.348670 2.604815 13.690233 21.454555 -0.003082 -0.000001 8.810741 -0.325787 -0.351850 7.610723 -0.627719 -0.724311 7.292639 -0.632216 -0.720512 7.217606 2.796670 -0.937730 3.993064 -0.227077 -0.309814 146.151104 -71.649811 33.461541 -9.198684 57.223905 19.290766 -45.996154 -17.597649 1.826588 7.844624 -9.788789 33.372769 -176.720312 73.084028 4.712600 -9.544090 -58.975945 -27.471740 -71.641868 11.195991 -2.295442 6.008497 9.063504 -27.859104 
62.419670 89.744873 -157.230194 92.897505 2.912404 117.719977 179.645477 -4.923097 -178.579490 -25.417912 -4.051665 -11.895531 89.401179 6.766408 -10.266469 21.454560 0.003105 0.000018 172.242536 17.080999 -172.007263 -29.717251 1.594016 -0.144335 84.354503 3.177009 15.146378 21.454551 -0.003088 0.000001 8.845524 -0.506496 -0.456167 7.682530 -0.981580 -0.944916 7.364441 -0.987414 -0.938968 7.499957 2.766309 -0.623085 3.991752 0.212551 -0.084209 147.430303 -71.522920 32.163829 -7.357961 56.062531 20.242697 -45.154384 -17.609256 1.801898 7.642392 -10.207662 31.590766 -176.375073 73.254202 5.070113 -10.709086 -58.695224 -27.394168 -71.389930 11.112446 -2.279303 5.129001 8.484509 -26.940402 
62.281399 89.852676 -157.117203 92.826827 3.287004 117.930907 179.763230 -5.234102 -178.041011 -25.623590 -4.123156 -12.145243 88.942341 6.858993 -10.568160 21.454558 0.003106 0.000017 171.596564 16.448393 -171.714098 -32.397998 0.780665 0.172331 84.678889 2.814870 14.622953 21.454555 -0.003075 -0.000001 8.889557 -0.647267 -0.560869 7.773113 -1.255394 -1.163925 7.454994 -1.262528 -1.156333 7.843391 3.125445 -0.456564 4.390548 0.394076 0.117112 147.155087 -71.525775 32.444836 -5.100245 54.853126 21.642728 -44.567637 -17.577461 1.782337 7.984948 -10.079101 30.854830 -176.556784 73.279180 4.883705 -10.997428 -58.433348 -27.409677 -71.497430 11.151388 -2.286410 4.054706 9.258895 -29.721698 
62.070190 90.078423 -156.828796 92.608568 3.569106 118.314955 -179.922674 -5.846800 -178.134571 -25.226501 -4.085350 -11.955110 88.194176 6.643731 -10.763186 21.454558 0.003105 0.000017 172.243929 15.536312 -171.179608 -31.740073 0.571816 1.584562 85.231861 1.525455 13.549824 21.454553 -0.003100 0.000001 8.883867 -0.709144 -0.557643 7.762433 -1.379267 -1.161586 7.444313 -1.386397 -1.153245 7.993203 2.871760 -0.464092 4.649176 0.990663 -0.042128 146.592211 -71.657666 33.010499 -3.389844 53.602686 23.326068 -44.112435 -17.531472 1.765887 8.460496 -9.523259 31.175087 -175.812812 73.570795 5.652392 -10.322427 -58.730966 -27.110252 -72.144836 11.192439 -2.315966 3.086603 10.085700 -32.076600 
61.789940 90.327637 -156.430298 92.296968 3.482301 118.854977 -179.902825 -6.526502 -178.464114 -24.681409 -4.053132 -11.527661 87.357204 6.263520 -10.917512 21.454560 0.003119 0.000018 173.314042 14.486608 -170.020757 -28.706390 0.655438 3.599120 85.641290 -0.138349 12.637779 21.454551 -0.003085 0.000001 8.762150 -0.757971 -0.505708 7.518922 -1.481480 -1.059596 7.200769 -1.487992 -1.050621 8.016695 2.915418 -0.623559 4.847980 1.045491 -0.199732 146.387783 -71.781252 33.210398 -1.972849 52.097070 25.192325 -43.883129 -17.415758 1.751580 8.640376 -8.533766 32.192051 -175.214802 73.825930 6.270103 -9.018402 -58.892609 -27.008603 -72.585622 10.968173 -2.318690 2.362905 11.306398 -30.208697 
61.473751 90.468933 -155.972000 92.326911 3.274204 119.169917 -179.880122 -6.761600 -178.489386 -24.361545 -3.983146 -11.390086 86.596034 6.054558 -11.275249 21.454560 0.003120 0.000018 174.527179 14.024599 -169.798967 -25.174539 1.592287 4.531159 84.269187 -0.561002 13.214707 21.454550 -0.003088 -0.000001 8.635321 -0.874360 -0.396476 7.264978 -1.722098 -0.847007 6.946764 -1.727313 -0.836608 8.179817 3.012763 -0.660093 4.706480 0.958660 -0.208193 146.771312 -71.847238 32.814042 -0.727014 50.626520 26.253772 -44.169092 -17.272256 1.750499 8.498732 -7.808121 33.183750 -175.618111 73.894895 5.856796 -7.693298 -58.557575 -26.892406 -72.997128 10.662640 -2.314615 3.001499 12.188096 -27.452900 
61.081799 90.689919 -155.470901 92.211092 3.206605 119.086916 -179.413292 -7.167688 -178.439102 -23.423845 -3.928826 -11.514445 85.721203 6.009921 -11.702256 21.454557 0.003107 0.000018 175.536982 13.237404 -170.033543 -22.629474 2.094289 4.806752 82.363264 -0.790642 12.117437 21.454555 -0.003089 0.000001 8.500740 -0.947183 -0.174568 6.992874 -1.882020 -0.405936 6.674611 -1.884576 -0.394569 8.544007 2.862884 -0.672790 4.493418 1.166350 -0.296484 146.749019 -71.820593 32.838675 0.508856 49.461587 26.745166 -44.650258 -17.287615 1.765698 8.441431 -7.480446 33.117050 -176.050803 74.241131 5.417415 -7.180783 -58.364574 -26.719186 -72.921449 10.739632 -2.316802 4.009009 12.310392 -25.797696 
60.485661 90.718613 -154.910294 92.207287 3.016397 119.045894 -179.144551 -7.605302 -178.342892 -22.778100 -3.944332 -11.546968 85.276879 5.913326 -12.202652 21.454557 0.003105 0.000017 176.004372 12.471401 -171.038278 -21.525968 2.230095 5.390164 82.065782 -1.496605 10.655582 21.454550 -0.003086 0.000001 8.374524 -1.048981 -0.014384 6.738167 -2.095292 -0.089663 6.419825 -2.095932 -0.077005 8.473622 2.709380 -0.617978 4.802973 1.535145 -0.326575 147.189675 -72.230562 32.359531 1.213675 48.797894 26.108026 -45.134238 -17.037697 1.763639 8.041596 -7.529431 33.012507 -176.649401 74.406804 4.805707 -8.209098 -57.642849 -26.265153 -72.014789 10.980833 -2.295947 4.472500 12.180200 -25.551603 
59.761261 90.855377 -154.263107 91.796540 3.233706 119.378907 -178.656097 -8.746196 -178.327551 -21.851363 -3.912124 -11.370757 84.716817 5.660476 -12.659851 21.454557 0.003106 0.000017 176.885507 11.341795 -170.223368 -20.363673 2.272949 5.360371 81.994338 -1.617028 9.988155 21.454551 -0.003098 -0.000001 8.284936 -0.974197 0.041151 6.557727 -1.949081 0.027228 6.239439 -1.949024 0.038999 8.752369 2.720272 -0.567182 4.924385 1.866182 -0.332015 148.165695 -72.225829 31.363187 1.685134 48.326300 25.080132 -45.240929 -17.231188 1.779588 7.719435 -7.653166 32.052917 -177.695308 74.657915 3.737110 -10.302876 -56.693756 -25.759184 -70.365053 11.749440 -2.281309 5.412902 11.304990 -26.502199 
58.946758 91.045059 -153.567398 91.259981 3.496507 120.194090 -178.500615 -10.054593 -178.605731 -21.202184 -3.567169 -10.859360 83.871178 5.114130 -13.190662 21.454557 0.003105 0.000017 178.027815 10.150703 -167.957726 -18.932986 2.287080 4.786476 81.660403 -1.355642 9.228639 21.454551 -0.003092 -0.000001 8.186327 -0.820757 -0.016121 6.360994 -1.639320 -0.077164 6.042765 -1.639897 -0.067263 9.304149 2.915747 -0.696433 5.075459 1.906499 -0.441244 148.284322 -72.315591 31.235766 2.039969 48.988446 23.768399 -44.810296 -17.921325 1.812183 7.834722 -7.576407 30.804396 -178.362918 74.929894 3.057483 -12.588372 -55.760029 -25.275356 -68.299481 12.678351 -2.261612 6.804704 9.621398 -27.664899 
58.120701 91.248337 -152.855698 90.929011 3.624208 121.089118 -178.493880 -11.381197 -178.798930 -20.641335 -3.712212 -10.266212 82.709506 4.518567 -13.491700 21.454555 0.003109 0.000016 179.153021 9.142397 -165.595519 -17.477745 2.301056 4.147188 81.375338 -1.062664 8.440370 21.454555 -0.003085 0.000001 8.096891 -0.714795 -0.055491 6.182344 -1.425572 -0.148923 5.864123 -1.426565 -0.140322 9.574178 3.203836 -0.982330 5.262003 1.993883 -0.690116 147.055079 -72.576873 32.472389 2.185730 50.456363 21.953449 -44.314643 -18.119971 1.810558 7.890694 -8.335688 30.208298 -178.718088 75.145980 2.697409 -14.234672 -54.963601 -24.677856 -66.433077 13.388199 -2.235869 8.658717 8.231712 -28.789203 
57.327229 91.348488 -152.202805 90.723203 3.798995 122.023925 -178.724262 -12.533483 -179.235884 -20.683266 -3.589649 -9.391416 81.874427 3.732521 -13.838040 21.454558 0.003103 0.000017 -179.965103 8.174814 -165.140696 -16.510630 2.642946 4.541470 81.399162 -1.473703 7.891583 21.454551 -0.003107 -0.000001 8.053198 -0.638045 -0.072552 6.094904 -1.271332 -0.178461 5.776723 -1.272521 -0.170783 9.558470 3.967567 -1.361625 5.240121 1.900843 -0.910110 144.459826 -73.268204 35.068606 1.810018 52.401676 20.504578 -43.909828 -18.186323 1.803019 8.101608 -8.816953 29.553313 -178.732691 75.138617 2.682398 -15.503886 -54.283851 -24.026773 -64.731786 13.877072 -2.202434 9.702700 7.736098 -28.499997 
